<svg xmlns="http://www.w3.org/2000/svg" width="355.024" height="435.06">
      <defs>
        <marker
          markerHeight="3"
          markerUnits="strokeWidth"
          markerWidth="4"
          orient="auto"
          refX="0"
          refY="5"
          viewBox="0 0 10 10"
        >
          <path d="M0 0l10 5-10 5z"></path>
        </marker>
        <marker
          markerHeight="3"
          markerUnits="strokeWidth"
          markerWidth="4"
          orient="auto"
          refX="10"
          refY="5"
          viewBox="0 0 10 10"
        >
          <path d="M10 0L0 5l10 5z"></path>
        </marker>
      </defs>
      <path
        fill="#000"
        stroke="none"
        d="M179.237 0C138.982 0 83.388 11.502 60.384 21.087c-23.004 9.585-38.34 19.17-43.132 43.132L0 197.06v183.045h29.712v28.705c0 35 51.218 35 51.218 0v-28.705h193.164v28.705c0 35 51.218 35 51.218 0v-28.705h29.712V197.06L337.772 64.219c-4.792-23.962-20.128-33.547-43.132-43.132C271.636 11.502 216.042 0 175.787 0"
      ></path>
      <g>
        <g>
          <g>
            <path
              fill="#fff"
              stroke="none"
              d="M299.682 322.723c13.568 0 24.568-11.002 24.568-24.57s-11-24.57-24.568-24.57c-13.568 0-24.569 11.002-24.569 24.57s11.001 24.57 24.569 24.57z"
            ></path>
          </g>
          <g>
            <path
              fill="#fff"
              stroke="none"
              d="M55.342 322.723c-13.568 0-24.568-11.002-24.568-24.57s11-24.57 24.568-24.57c13.568 0 24.569 11.002 24.569 24.57s-11.001 24.57-24.569 24.57z"
            ></path>
          </g>
        </g>
        <path
          fill="#fff"
          stroke="none"
          d="M175.612 55.113h-71.136c-14.378 0-14.378-21.566 0-21.566h146.072c14.378 0 14.378 21.566 0 21.566h-74.936z"
        ></path>
        <path
          fill="#fff"
          stroke="none"
          d="M175.612 76.887H65.715c-15.188 0-19.156 7.717-21 19.423l-13.428 96.348c-1.252 9.235 1.419 18.402 14.178 18.402h264.094c12.759 0 15.43-9.167 14.178-18.402L310.309 96.31c-1.844-11.706-5.812-19.423-21-19.423H175.612z"
        ></path>
      </g>
    </svg>